<?xml version="1.0" encoding="UTF-8" standalone="no"?>
<!-- Created with Inkscape (http://www.inkscape.org/) -->

<svg
   width="512"
   height="512"
   viewBox="0 0 512 512"
   version="1.1"
   id="svg1"
   xml:space="preserve"
   inkscape:version="1.4.2 (ebf0e940d0, 2025-05-08)"
   sodipodi:docname="icon_simplified.svg"
   xmlns:inkscape="http://www.inkscape.org/namespaces/inkscape"
   xmlns:sodipodi="http://sodipodi.sourceforge.net/DTD/sodipodi-0.dtd"
   xmlns:xlink="http://www.w3.org/1999/xlink"
   xmlns="http://www.w3.org/2000/svg"
   xmlns:svg="http://www.w3.org/2000/svg"><sodipodi:namedview
     id="namedview1"
     pagecolor="#505050"
     bordercolor="#eeeeee"
     borderopacity="1"
     inkscape:showpageshadow="0"
     inkscape:pageopacity="0"
     inkscape:pagecheckerboard="0"
     inkscape:deskcolor="#505050"
     inkscape:document-units="px"
     showguides="true"
     showgrid="true"
     inkscape:zoom="1.0509927"
     inkscape:cx="123.21684"
     inkscape:cy="276.40535"
     inkscape:window-width="1920"
     inkscape:window-height="1011"
     inkscape:window-x="0"
     inkscape:window-y="0"
     inkscape:window-maximized="1"
     inkscape:current-layer="layer1"><inkscape:grid
       id="grid1"
       units="px"
       originx="0"
       originy="0"
       spacingx="0.5"
       spacingy="0.5"
       empcolor="#0099e5"
       empopacity="0.30196078"
       color="#0099e5"
       opacity="0.14901961"
       empspacing="8"
       enabled="true"
       visible="true" /></sodipodi:namedview><defs
     id="defs1"><linearGradient
       id="linearGradient7"
       inkscape:collect="always"><stop
         style="stop-color:#ff5d01;stop-opacity:1;"
         offset="0"
         id="stop7" /><stop
         style="stop-color:#ff01e4;stop-opacity:1;"
         offset="1"
         id="stop8" /></linearGradient><linearGradient
       inkscape:collect="always"
       xlink:href="#linearGradient7"
       id="linearGradient8"
       x1="0"
       y1="0"
       x2="512.18896"
       y2="512.18896"
       gradientUnits="userSpaceOnUse" /><linearGradient
       inkscape:collect="always"
       xlink:href="#linearGradient7"
       id="linearGradient11"
       x1="0"
       y1="0"
       x2="512"
       y2="512"
       gradientUnits="userSpaceOnUse"
       gradientTransform="matrix(0.7,0,0,0.7,76.8,76.8)" /></defs><g
     inkscape:label="Layer 1"
     inkscape:groupmode="layer"
     id="layer1"
     style="display:inline;fill:none;fill-opacity:1"><path
       id="path1"
       style="fill:url(#linearGradient8);stroke:none;stroke-width:0.377953;stroke-linecap:round;stroke-linejoin:round;paint-order:markers fill stroke;fill-opacity:1"
       d="M 256 0 A 256 256 0 0 0 102.40039 51.199219 L 256 128 L 409.59961 51.199219 A 256 256 0 0 0 256 0 z M 51.199219 102.40039 A 256 256 0 0 0 0 256 A 256 256 0 0 0 51.199219 409.59961 L 128 256 L 51.199219 102.40039 z M 460.80078 102.40039 L 384 256 L 460.80078 409.59961 A 256 256 0 0 0 512 256 A 256 256 0 0 0 460.80078 102.40039 z M 256 384 L 102.40039 460.80078 A 256 256 0 0 0 256 512 A 256 256 0 0 0 409.59961 460.80078 L 256 384 z " /><path
       style="fill:url(#linearGradient11);fill-opacity:1;stroke:none;stroke-width:37.7953;stroke-linecap:round;stroke-linejoin:round;stroke-dasharray:none;stroke-opacity:1;paint-order:markers fill stroke"
       d="M 130.56,381.44 256,318.72 381.44,381.44 318.72,256 381.44,130.56 256,193.28 130.56,130.56 193.28,256 Z"
       id="path10" /></g></svg>
